STARTFONT 2.1
COMMENT Copyright 2015-2018 Dave Jones <dave@waveform.org.uk>
COMMENT
COMMENT Redistribution and use in source and binary forms, with or without
COMMENT modification, are permitted provided that the following conditions are met:
COMMENT
COMMENT     * Redistributions of source code must retain the above copyright
COMMENT       notice, this list of conditions and the following disclaimer.
COMMENT     * Redistributions in binary form must reproduce the above copyright
COMMENT       notice, this list of conditions and the following disclaimer in the
COMMENT       documentation and/or other materials provided with the distribution.
COMMENT     * Neither the name of the copyright holder nor the
COMMENT       names of its contributors may be used to endorse or promote products
COMMENT       derived from this software without specific prior written permission.
COMMENT
COMMENT THIS SOFTWARE IS PROVIDED BY THE COPYRIGHT HOLDERS AND CONTRIBUTORS "AS IS"
COMMENT AND ANY EXPRESS OR IMPLIED WARRANTIES, INCLUDING, BUT NOT LIMITED TO, THE
COMMENT IMPLIED WARRANTIES OF MERCHANTABILITY AND FITNESS FOR A PARTICULAR PURPOSE
COMMENT ARE DISCLAIMED. IN NO EVENT SHALL THE COPYRIGHT HOLDER OR CONTRIBUTORS BE
COMMENT LIABLE FOR ANY DIRECT, INDIRECT, INCIDENTAL, SPECIAL, EXEMPLARY, OR
COMMENT CONSEQUENTIAL DAMAGES (INCLUDING, BUT NOT LIMITED TO, PROCUREMENT OF
COMMENT SUBSTITUTE GOODS OR SERVICES; LOSS OF USE, DATA, OR PROFITS; OR BUSINESS
COMMENT INTERRUPTION) HOWEVER CAUSED AND ON ANY THEORY OF LIABILITY, WHETHER IN
COMMENT CONTRACT, STRICT LIABILITY, OR TORT (INCLUDING NEGLIGENCE OR OTHERWISE)
COMMENT ARISING IN ANY WAY OUT OF THE USE OF THIS SOFTWARE, EVEN IF ADVISED OF THE
COMMENT POSSIBILITY OF SUCH DAMAGE.
FONT small
SIZE 30 72 72
FONTBOUNDINGBOX 5 5 0 0
STARTPROPERTIES 11
FOUNDRY "Fine"
FAMILY_NAME ""
WEIGHT_NAME "Medium"
SLANT "R"
SETWIDTH_NAME "Normal"
SPACING "c"
CHARSET_REGISTRY "ISO-8859"
CHARSET_ENCODING "1"

STARTCHAR C040
ENCODING 32
SWIDTH 66 0
DWIDTH 2 0
BBX 0 0 0 0
BITMAP
ENDCHAR
STARTCHAR C041
ENCODING 33
SWIDTH 66 0
DWIDTH 2 0
BBX 1 5 0 0
BITMAP
80
80
80
00
80
ENDCHAR
STARTCHAR C042
ENCODING 34
SWIDTH 133 0
DWIDTH 4 0
BBX 3 2 0 3
BITMAP
a0
a0
ENDCHAR
STARTCHAR C043
ENCODING 35
SWIDTH 200 0
DWIDTH 6 0
BBX 5 5 0 0
BITMAP
50
f8
50
f8
50
ENDCHAR
STARTCHAR C044
ENCODING 36
SWIDTH 133 0
DWIDTH 4 0
BBX 3 5 0 0
BITMAP
60
c0
40
60
c0
ENDCHAR
STARTCHAR C045
ENCODING 37
SWIDTH 133 0
DWIDTH 4 0
BBX 3 5 0 0
BITMAP
80
20
40
80
20
ENDCHAR
STARTCHAR C046
ENCODING 38
SWIDTH 133 0
DWIDTH 4 0
BBX 3 5 0 0
BITMAP
40
a0
40
a0
60
ENDCHAR
STARTCHAR C047
ENCODING 39
SWIDTH 66 0
DWIDTH 2 0
BBX 1 2 0 3
BITMAP
80
80
ENDCHAR
STARTCHAR C050
ENCODING 40
SWIDTH 100 0
DWIDTH 3 0
BBX 2 5 0 0
BITMAP
40
80
80
80
40
ENDCHAR
STARTCHAR C051
ENCODING 41
SWIDTH 100 0
DWIDTH 3 0
BBX 2 5 0 0
BITMAP
80
40
40
40
80
ENDCHAR
STARTCHAR C052
ENCODING 42
SWIDTH 133 0
DWIDTH 4 0
BBX 3 5 0 0
BITMAP
a0
40
e0
40
a0
ENDCHAR
STARTCHAR C053
ENCODING 43
SWIDTH 133 0
DWIDTH 4 0
BBX 3 3 0 1
BITMAP
40
e0
40
ENDCHAR
STARTCHAR C054
ENCODING 44
SWIDTH 100 0
DWIDTH 3 0
BBX 2 2 0 0
BITMAP
40
80
ENDCHAR
STARTCHAR C055
ENCODING 45
SWIDTH 133 0
DWIDTH 4 0
BBX 3 1 0 2
BITMAP
e0
ENDCHAR
STARTCHAR C056
ENCODING 46
SWIDTH 66 0
DWIDTH 2 0
BBX 1 1 0 0
BITMAP
80
ENDCHAR
STARTCHAR C057
ENCODING 47
SWIDTH 133 0
DWIDTH 4 0
BBX 3 3 0 1
BITMAP
20
40
80
ENDCHAR
STARTCHAR C060
ENCODING 48
SWIDTH 133 0
DWIDTH 4 0
BBX 3 5 0 0
BITMAP
e0
a0
a0
a0
e0
ENDCHAR
STARTCHAR C061
ENCODING 49
SWIDTH 133 0
DWIDTH 4 0
BBX 3 5 0 0
BITMAP
40
c0
40
40
e0
ENDCHAR
STARTCHAR C062
ENCODING 50
SWIDTH 133 0
DWIDTH 4 0
BBX 3 5 0 0
BITMAP
c0
20
40
80
e0
ENDCHAR
STARTCHAR C063
ENCODING 51
SWIDTH 133 0
DWIDTH 4 0
BBX 3 5 0 0
BITMAP
c0
20
40
20
c0
ENDCHAR
STARTCHAR C064
ENCODING 52
SWIDTH 133 0
DWIDTH 4 0
BBX 3 5 0 0
BITMAP
a0
a0
e0
20
20
ENDCHAR
STARTCHAR C065
ENCODING 53
SWIDTH 133 0
DWIDTH 4 0
BBX 3 5 0 0
BITMAP
e0
80
40
20
c0
ENDCHAR
STARTCHAR C066
ENCODING 54
SWIDTH 133 0
DWIDTH 4 0
BBX 3 5 0 0
BITMAP
60
80
c0
a0
40
ENDCHAR
STARTCHAR C067
ENCODING 55
SWIDTH 133 0
DWIDTH 4 0
BBX 3 5 0 0
BITMAP
e0
20
40
40
40
ENDCHAR
STARTCHAR C070
ENCODING 56
SWIDTH 133 0
DWIDTH 4 0
BBX 3 5 0 0
BITMAP
40
a0
40
a0
40
ENDCHAR
STARTCHAR C071
ENCODING 57
SWIDTH 133 0
DWIDTH 4 0
BBX 3 5 0 0
BITMAP
40
a0
60
20
c0
ENDCHAR
STARTCHAR C072
ENCODING 58
SWIDTH 66 0
DWIDTH 2 0
BBX 1 3 0 1
BITMAP
80
00
80
ENDCHAR
STARTCHAR C073
ENCODING 59
SWIDTH 100 0
DWIDTH 3 0
BBX 2 4 0 0
BITMAP
40
00
40
80
ENDCHAR
STARTCHAR C074
ENCODING 60
SWIDTH 133 0
DWIDTH 4 0
BBX 3 5 0 0
BITMAP
20
40
80
40
20
ENDCHAR
STARTCHAR C075
ENCODING 61
SWIDTH 133 0
DWIDTH 4 0
BBX 3 3 0 1
BITMAP
e0
00
e0
ENDCHAR
STARTCHAR C076
ENCODING 62
SWIDTH 133 0
DWIDTH 4 0
BBX 3 5 0 0
BITMAP
80
40
20
40
80
ENDCHAR
STARTCHAR C077
ENCODING 63
SWIDTH 133 0
DWIDTH 4 0
BBX 3 5 0 0
BITMAP
c0
20
40
00
40
ENDCHAR
STARTCHAR C100
ENCODING 64
SWIDTH 200 0
DWIDTH 6 0
BBX 5 5 0 0
BITMAP
70
88
68
a8
78
ENDCHAR
STARTCHAR C101
ENCODING 65
SWIDTH 133 0
DWIDTH 4 0
BBX 3 5 0 0
BITMAP
40
a0
e0
a0
a0
ENDCHAR
STARTCHAR C102
ENCODING 66
SWIDTH 133 0
DWIDTH 4 0
BBX 3 5 0 0
BITMAP
c0
a0
c0
a0
c0
ENDCHAR
STARTCHAR C103
ENCODING 67
SWIDTH 133 0
DWIDTH 4 0
BBX 3 5 0 0
BITMAP
60
80
80
80
60
ENDCHAR
STARTCHAR C104
ENCODING 68
SWIDTH 133 0
DWIDTH 4 0
BBX 3 5 0 0
BITMAP
c0
a0
a0
a0
c0
ENDCHAR
STARTCHAR C105
ENCODING 69
SWIDTH 133 0
DWIDTH 4 0
BBX 3 5 0 0
BITMAP
e0
80
c0
80
e0
ENDCHAR
STARTCHAR C106
ENCODING 70
SWIDTH 133 0
DWIDTH 4 0
BBX 3 5 0 0
BITMAP
e0
80
c0
80
80
ENDCHAR
STARTCHAR C107
ENCODING 71
SWIDTH 133 0
DWIDTH 4 0
BBX 3 5 0 0
BITMAP
60
80
a0
a0
c0
ENDCHAR
STARTCHAR C110
ENCODING 72
SWIDTH 133 0
DWIDTH 4 0
BBX 3 5 0 0
BITMAP
a0
a0
e0
a0
a0
ENDCHAR
STARTCHAR C111
ENCODING 73
SWIDTH 66 0
DWIDTH 2 0
BBX 1 5 0 0
BITMAP
80
80
80
80
80
ENDCHAR
STARTCHAR C112
ENCODING 74
SWIDTH 133 0
DWIDTH 4 0
BBX 3 5 0 0
BITMAP
e0
40
40
40
80
ENDCHAR
STARTCHAR C113
ENCODING 75
SWIDTH 133 0
DWIDTH 4 0
BBX 3 5 0 0
BITMAP
a0
a0
c0
a0
a0
ENDCHAR
STARTCHAR C114
ENCODING 76
SWIDTH 133 0
DWIDTH 4 0
BBX 3 5 0 0
BITMAP
80
80
80
80
e0
ENDCHAR
STARTCHAR C115
ENCODING 77
SWIDTH 133 0
DWIDTH 4 0
BBX 3 5 0 0
BITMAP
a0
e0
a0
a0
a0
ENDCHAR
STARTCHAR C116
ENCODING 78
SWIDTH 133 0
DWIDTH 4 0
BBX 3 5 0 0
BITMAP
c0
a0
a0
a0
a0
ENDCHAR
STARTCHAR C117
ENCODING 79
SWIDTH 133 0
DWIDTH 4 0
BBX 3 5 0 0
BITMAP
40
a0
a0
a0
40
ENDCHAR
STARTCHAR C120
ENCODING 80
SWIDTH 133 0
DWIDTH 4 0
BBX 3 5 0 0
BITMAP
c0
a0
c0
80
80
ENDCHAR
STARTCHAR C121
ENCODING 81
SWIDTH 133 0
DWIDTH 4 0
BBX 3 5 0 0
BITMAP
40
a0
a0
a0
60
ENDCHAR
STARTCHAR C122
ENCODING 82
SWIDTH 133 0
DWIDTH 4 0
BBX 3 5 0 0
BITMAP
c0
a0
c0
a0
a0
ENDCHAR
STARTCHAR C123
ENCODING 83
SWIDTH 133 0
DWIDTH 4 0
BBX 3 5 0 0
BITMAP
60
80
40
20
c0
ENDCHAR
STARTCHAR C124
ENCODING 84
SWIDTH 133 0
DWIDTH 4 0
BBX 3 5 0 0
BITMAP
e0
40
40
40
40
ENDCHAR
STARTCHAR C125
ENCODING 85
SWIDTH 133 0
DWIDTH 4 0
BBX 3 5 0 0
BITMAP
a0
a0
a0
a0
e0
ENDCHAR
STARTCHAR C126
ENCODING 86
SWIDTH 133 0
DWIDTH 4 0
BBX 3 5 0 0
BITMAP
a0
a0
a0
a0
40
ENDCHAR
STARTCHAR C127
ENCODING 87
SWIDTH 133 0
DWIDTH 4 0
BBX 3 5 0 0
BITMAP
a0
a0
a0
e0
a0
ENDCHAR
STARTCHAR C130
ENCODING 88
SWIDTH 133 0
DWIDTH 4 0
BBX 3 5 0 0
BITMAP
a0
a0
40
a0
a0
ENDCHAR
STARTCHAR C131
ENCODING 89
SWIDTH 133 0
DWIDTH 4 0
BBX 3 5 0 0
BITMAP
a0
a0
40
40
40
ENDCHAR
STARTCHAR C132
ENCODING 90
SWIDTH 133 0
DWIDTH 4 0
BBX 3 5 0 0
BITMAP
e0
20
40
80
e0
ENDCHAR
STARTCHAR C133
ENCODING 91
SWIDTH 100 0
DWIDTH 3 0
BBX 2 5 0 0
BITMAP
c0
80
80
80
c0
ENDCHAR
STARTCHAR C134
ENCODING 92
SWIDTH 133 0
DWIDTH 4 0
BBX 3 3 0 1
BITMAP
80
40
20
ENDCHAR
STARTCHAR C135
ENCODING 93
SWIDTH 100 0
DWIDTH 3 0
BBX 2 5 0 0
BITMAP
c0
40
40
40
c0
ENDCHAR
STARTCHAR C136
ENCODING 94
SWIDTH 133 0
DWIDTH 4 0
BBX 3 2 0 3
BITMAP
40
a0
ENDCHAR
STARTCHAR C137
ENCODING 95
SWIDTH 133 0
DWIDTH 4 0
BBX 3 1 0 0
BITMAP
e0
ENDCHAR
STARTCHAR C140
ENCODING 96
SWIDTH 100 0
DWIDTH 3 0
BBX 2 2 0 3
BITMAP
80
40
ENDCHAR
STARTCHAR C141
ENCODING 97
SWIDTH 133 0
DWIDTH 4 0
BBX 3 4 0 0
BITMAP
60
a0
a0
60
ENDCHAR
STARTCHAR C142
ENCODING 98
SWIDTH 133 0
DWIDTH 4 0
BBX 3 4 0 0
BITMAP
80
c0
a0
c0
ENDCHAR
STARTCHAR C143
ENCODING 99
SWIDTH 133 0
DWIDTH 4 0
BBX 3 3 0 0
BITMAP
60
80
60
ENDCHAR
STARTCHAR C144
ENCODING 100
SWIDTH 133 0
DWIDTH 4 0
BBX 3 4 0 0
BITMAP
20
60
a0
60
ENDCHAR
STARTCHAR C145
ENCODING 101
SWIDTH 133 0
DWIDTH 4 0
BBX 3 4 0 0
BITMAP
60
a0
c0
60
ENDCHAR
STARTCHAR C146
ENCODING 102
SWIDTH 133 0
DWIDTH 4 0
BBX 3 4 0 0
BITMAP
60
80
c0
80
ENDCHAR
STARTCHAR C147
ENCODING 103
SWIDTH 133 0
DWIDTH 4 0
BBX 3 4 0 0
BITMAP
60
a0
60
c0
ENDCHAR
STARTCHAR C150
ENCODING 104
SWIDTH 133 0
DWIDTH 4 0
BBX 3 4 0 0
BITMAP
80
c0
a0
a0
ENDCHAR
STARTCHAR C151
ENCODING 105
SWIDTH 66 0
DWIDTH 2 0
BBX 1 4 0 0
BITMAP
80
00
80
80
ENDCHAR
STARTCHAR C152
ENCODING 106
SWIDTH 100 0
DWIDTH 3 0
BBX 2 4 0 0
BITMAP
40
00
40
80
ENDCHAR
STARTCHAR C153
ENCODING 107
SWIDTH 133 0
DWIDTH 4 0
BBX 3 4 0 0
BITMAP
80
a0
c0
a0
ENDCHAR
STARTCHAR C154
ENCODING 108
SWIDTH 100 0
DWIDTH 3 0
BBX 2 4 0 0
BITMAP
80
80
80
40
ENDCHAR
STARTCHAR C155
ENCODING 109
SWIDTH 133 0
DWIDTH 4 0
BBX 3 4 0 0
BITMAP
a0
e0
a0
a0
ENDCHAR
STARTCHAR C156
ENCODING 110
SWIDTH 133 0
DWIDTH 4 0
BBX 3 4 0 0
BITMAP
c0
a0
a0
a0
ENDCHAR
STARTCHAR C157
ENCODING 111
SWIDTH 133 0
DWIDTH 4 0
BBX 3 4 0 0
BITMAP
40
a0
a0
40
ENDCHAR
STARTCHAR C160
ENCODING 112
SWIDTH 133 0
DWIDTH 4 0
BBX 3 4 0 0
BITMAP
c0
a0
c0
80
ENDCHAR
STARTCHAR C161
ENCODING 113
SWIDTH 133 0
DWIDTH 4 0
BBX 3 4 0 0
BITMAP
60
a0
60
20
ENDCHAR
STARTCHAR C162
ENCODING 114
SWIDTH 133 0
DWIDTH 4 0
BBX 3 4 0 0
BITMAP
60
80
80
80
ENDCHAR
STARTCHAR C163
ENCODING 115
SWIDTH 133 0
DWIDTH 4 0
BBX 3 4 0 0
BITMAP
60
c0
20
c0
ENDCHAR
STARTCHAR C164
ENCODING 116
SWIDTH 100 0
DWIDTH 3 0
BBX 2 4 0 0
BITMAP
80
c0
80
40
ENDCHAR
STARTCHAR C165
ENCODING 117
SWIDTH 133 0
DWIDTH 4 0
BBX 3 4 0 0
BITMAP
a0
a0
a0
60
ENDCHAR
STARTCHAR C166
ENCODING 118
SWIDTH 133 0
DWIDTH 4 0
BBX 3 4 0 0
BITMAP
a0
a0
a0
40
ENDCHAR
STARTCHAR C167
ENCODING 119
SWIDTH 133 0
DWIDTH 4 0
BBX 3 4 0 0
BITMAP
a0
a0
e0
a0
ENDCHAR
STARTCHAR C170
ENCODING 120
SWIDTH 133 0
DWIDTH 4 0
BBX 3 3 0 0
BITMAP
a0
40
a0
ENDCHAR
STARTCHAR C171
ENCODING 121
SWIDTH 133 0
DWIDTH 4 0
BBX 3 4 0 0
BITMAP
a0
a0
40
80
ENDCHAR
STARTCHAR C172
ENCODING 122
SWIDTH 133 0
DWIDTH 4 0
BBX 3 4 0 0
BITMAP
e0
20
40
e0
ENDCHAR
STARTCHAR C173
ENCODING 123
SWIDTH 133 0
DWIDTH 4 0
BBX 3 5 0 0
BITMAP
60
40
80
40
60
ENDCHAR
STARTCHAR C174
ENCODING 124
SWIDTH 66 0
DWIDTH 2 0
BBX 1 5 0 0
BITMAP
80
80
80
80
80
ENDCHAR
STARTCHAR C175
ENCODING 125
SWIDTH 133 0
DWIDTH 4 0
BBX 3 5 0 0
BITMAP
c0
40
20
40
c0
ENDCHAR
STARTCHAR C176
ENCODING 126
SWIDTH 166 0
DWIDTH 5 0
BBX 4 2 0 2
BITMAP
50
a0
ENDCHAR
STARTCHAR C200
ENCODING 128
SWIDTH 133 0
DWIDTH 4 0
BBX 3 5 0 0
BITMAP
60
40
e0
40
60
ENDCHAR
STARTCHAR C241
ENCODING 161
SWIDTH 66 0
DWIDTH 2 0
BBX 1 5 0 0
BITMAP
80
00
80
80
80
ENDCHAR
STARTCHAR C243
ENCODING 163
SWIDTH 133 0
DWIDTH 4 0
BBX 3 5 0 0
BITMAP
20
40
60
40
e0
ENDCHAR
STARTCHAR C246
ENCODING 166
SWIDTH 66 0
DWIDTH 2 0
BBX 1 5 0 0
BITMAP
80
80
00
80
80
ENDCHAR
STARTCHAR C254
ENCODING 172
SWIDTH 133 0
DWIDTH 4 0
BBX 3 2 0 1
BITMAP
e0
20
ENDCHAR
STARTCHAR C260
ENCODING 176
SWIDTH 133 0
DWIDTH 4 0
BBX 3 3 0 2
BITMAP
40
a0
40
ENDCHAR
STARTCHAR C261
ENCODING 177
SWIDTH 133 0
DWIDTH 4 0
BBX 3 5 0 0
BITMAP
40
e0
40
00
e0
ENDCHAR
STARTCHAR C264
ENCODING 180
SWIDTH 100 0
DWIDTH 3 0
BBX 2 2 0 3
BITMAP
40
80
ENDCHAR
STARTCHAR C265
ENCODING 181
SWIDTH 133 0
DWIDTH 4 0
BBX 3 4 0 0
BITMAP
a0
a0
c0
80
ENDCHAR
STARTCHAR C267
ENCODING 183
SWIDTH 66 0
DWIDTH 2 0
BBX 1 1 0 2
BITMAP
80
ENDCHAR
STARTCHAR C277
ENCODING 191
SWIDTH 133 0
DWIDTH 4 0
BBX 3 5 0 0
BITMAP
40
00
40
80
60
ENDCHAR
ENDFONT
